<svg width="196" height="45" viewBox="0 0 196 45" fill="none"
  xmlns="http://www.w3.org/2000/svg">
  <path d="M3.328 7.68C1.74933 7.68 0.96 6.912 0.96 5.376C0.96 4.77867 1.408 4.288 2.304 3.904C3.2 3.47733 4.37333 3.136 5.824 2.88C7.31733 2.58133 8.896 2.368 10.56 2.24C12.2667 2.112 13.9093 2.02666 15.488 1.984C17.0667 1.89867 18.4533 1.856 19.648 1.856C20.8427 1.81333 21.632 1.792 22.016 1.792H25.536C28.8213 1.792 32.1493 1.856 35.52 1.984C38.8907 2.112 42.1333 2.47467 45.248 3.072C45.4187 3.11466 45.7173 3.2 46.144 3.328C46.6133 3.41333 47.04 3.56266 47.424 3.776C47.8507 3.94666 48.064 4.18133 48.064 4.48C48.064 4.69333 47.872 4.84267 47.488 4.928C47.1467 4.97066 46.848 4.992 46.592 4.992C46.0373 4.992 45.4613 4.94933 44.864 4.864C44.2667 4.77867 43.6693 4.69333 43.072 4.608C41.3227 4.30933 39.5093 4.13867 37.632 4.096C35.7973 4.05333 33.9627 4.032 32.128 4.032C28.8853 4.032 25.6213 4.096 22.336 4.224C19.0507 4.30933 15.7867 4.544 12.544 4.928C12.4587 5.26933 12.0107 5.61067 11.2 5.952C10.3893 6.29333 9.42933 6.592 8.32 6.848C7.25333 7.104 6.22933 7.31733 5.248 7.488C4.30933 7.616 3.66933 7.68 3.328 7.68ZM8.512 44.16C7.57333 44.16 6.912 43.8187 6.528 43.136C6.144 42.496 5.952 41.728 5.952 40.832C5.952 39.3813 6.272 37.6533 6.912 35.648C7.552 33.6 8.384 31.4453 9.408 29.184C10.432 26.88 11.52 24.6187 12.672 22.4C13.824 20.1387 14.912 18.0907 15.936 16.256C16.96 14.3787 17.8133 12.864 18.496 11.712C19.008 10.816 19.5413 9.856 20.096 8.832C20.6507 7.76533 21.248 6.82667 21.888 6.016C22.1013 5.71733 22.464 5.52533 22.976 5.44C23.488 5.35466 23.8933 5.312 24.192 5.312C24.5333 5.312 24.9173 5.376 25.344 5.504C25.7707 5.632 26.0053 5.93067 26.048 6.4C26.048 6.74133 25.9627 7.08267 25.792 7.424C25.664 7.72267 25.5147 8 25.344 8.256C23.424 11.3707 21.504 14.3573 19.584 17.216C17.664 20.0747 15.872 23.1467 14.208 26.432C13.8667 27.1147 13.3547 28.0747 12.672 29.312C11.9893 30.5067 11.2853 31.8293 10.56 33.28C9.87733 34.7307 9.28 36.16 8.768 37.568C8.29867 38.976 8.064 40.2133 8.064 41.28C8.064 41.4507 8.08533 41.728 8.128 42.112C8.21333 42.496 8.448 42.688 8.832 42.688C9.04533 42.688 9.152 42.88 9.152 43.264C9.152 43.4773 9.088 43.6693 8.96 43.84C8.87467 44.0533 8.72533 44.16 8.512 44.16ZM29.1425 40.704C27.9052 40.704 26.9878 40.2133 26.3905 39.232C25.7932 38.208 25.4945 37.1627 25.4945 36.096C25.4945 34.6453 25.8785 33.088 26.6465 31.424C27.4145 29.7173 28.3318 28.096 29.3985 26.56C30.5078 25.024 31.4892 23.7653 32.3425 22.784C32.5558 22.528 32.8332 22.4 33.1745 22.4C33.5585 22.4 33.9425 22.5493 34.3265 22.848C35.2225 22.208 36.2465 21.632 37.3985 21.12C38.5932 20.608 39.7452 20.352 40.8545 20.352C42.7745 20.352 43.7345 21.3333 43.7345 23.296C43.7345 25.1733 43.2652 26.9013 42.3265 28.48C41.4305 30.0587 40.4278 31.5947 39.3185 33.088C39.0198 33.472 38.7212 33.8347 38.4225 34.176C38.1665 34.5173 37.8678 34.8587 37.5265 35.2C39.4038 34.688 41.0465 33.8347 42.4545 32.64C43.8625 31.4453 45.2492 30.208 46.6145 28.928C46.7852 28.7573 46.9345 28.6293 47.0625 28.544C47.2332 28.416 47.4465 28.352 47.7025 28.352C47.9158 28.352 48.0225 28.5013 48.0225 28.8C48.0225 28.8427 47.9585 28.9493 47.8305 29.12C47.7025 29.2907 47.6172 29.4187 47.5745 29.504C46.1665 31.2107 44.4172 32.8107 42.3265 34.304C40.2785 35.7547 38.1238 36.6507 35.8625 36.992C35.0518 37.8027 34.0278 38.6347 32.7905 39.488C31.5532 40.2987 30.3372 40.704 29.1425 40.704ZM34.1345 35.648C34.3052 35.648 34.4545 35.648 34.5825 35.648C34.7532 35.648 34.9238 35.6267 35.0945 35.584C35.9478 34.56 36.8225 33.344 37.7185 31.936C38.6572 30.528 39.4465 29.0773 40.0865 27.584C40.7265 26.048 41.0465 24.6613 41.0465 23.424C41.0465 22.656 40.6838 22.272 39.9585 22.272C39.2332 22.272 38.4012 22.4853 37.4625 22.912C36.5238 23.3387 35.7345 23.7867 35.0945 24.256V24.448C35.0945 24.8747 34.7532 25.4933 34.0705 26.304C33.4305 27.072 32.7265 27.8613 31.9585 28.672C31.2332 29.4827 30.6998 30.1653 30.3585 30.72C30.2305 32.128 30.5078 33.3013 31.1905 34.24C31.8732 35.1787 32.8545 35.648 34.1345 35.648ZM29.2065 39.616C30.0172 39.616 30.8065 39.3173 31.5745 38.72C32.3852 38.1227 33.0678 37.568 33.6225 37.056C32.5985 36.9707 31.6598 36.6293 30.8065 36.032C29.9958 35.392 29.2492 34.688 28.5665 33.92C28.4385 34.176 28.2678 34.6667 28.0545 35.392C27.8412 36.1173 27.7345 36.8427 27.7345 37.568C27.7345 38.1227 27.8412 38.6133 28.0545 39.04C28.2678 39.424 28.6518 39.616 29.2065 39.616ZM56.0205 40.576C55.6365 40.576 55.1885 40.4053 54.6765 40.064C54.2072 39.7653 53.7805 39.4027 53.3965 38.976C53.0125 38.5067 52.8205 38.08 52.8205 37.696C52.8205 37.184 52.9912 36.5227 53.3325 35.712C53.6738 34.9013 54.1005 34.048 54.6125 33.152C55.1245 32.2133 55.6152 31.36 56.0845 30.592C56.5965 29.824 56.9805 29.2267 57.2365 28.8C56.8952 29.2267 56.3618 29.888 55.6365 30.784C54.9112 31.6373 54.1005 32.5973 53.2045 33.664C52.3512 34.688 51.4552 35.6907 50.5165 36.672C49.6205 37.6107 48.7885 38.4 48.0205 39.04C47.2525 39.6373 46.6338 39.936 46.1645 39.936C45.8658 39.936 45.3538 39.6587 44.6285 39.104C43.9458 38.5067 43.6045 37.6107 43.6045 36.416C43.6045 35.4347 43.9032 34.24 44.5005 32.832C45.1405 31.424 45.9725 29.9733 46.9965 28.48C48.0205 26.944 49.1298 25.5147 50.3245 24.192C51.5618 22.8693 52.7778 21.8027 53.9725 20.992C55.2098 20.1813 56.3192 19.776 57.3005 19.776C58.0685 19.776 58.8152 20.032 59.5405 20.544C60.2658 21.0133 60.6925 21.888 60.8205 23.168C61.7592 21.9307 62.6978 20.736 63.6365 19.584C64.6178 18.3893 65.9832 16.832 67.7325 14.912C67.9458 14.656 68.3512 14.208 68.9485 13.568C69.5458 12.8853 70.2285 12.16 70.9965 11.392C71.7645 10.5813 72.5112 9.856 73.2365 9.216C74.0045 8.53333 74.6445 8.10667 75.1565 7.936C75.3698 7.85066 75.7965 7.97867 76.4365 8.32C77.0765 8.61866 77.3965 9.00266 77.3965 9.472C77.3965 9.728 77.2898 9.96267 77.0765 10.176C76.8205 10.4747 76.3725 10.9227 75.7325 11.52C75.1352 12.1173 74.4525 12.7573 73.6845 13.44C72.9165 14.1227 72.1912 14.7627 71.5085 15.36C70.8685 15.9147 70.4205 16.3627 70.1645 16.704C66.5805 20.5013 63.5085 24.128 60.9485 27.584C58.3885 31.04 56.6818 34.0907 55.8285 36.736C55.6152 37.376 55.5085 37.824 55.5085 38.08C55.5085 38.464 55.6152 38.656 55.8285 38.656C55.9992 38.656 56.2125 38.5707 56.4685 38.4C56.7245 38.1867 57.0232 37.952 57.3645 37.696C58.0472 37.1413 58.8152 36.4587 59.6685 35.648C60.5645 34.8373 61.4392 34.0053 62.2925 33.152C63.1458 32.2987 63.8925 31.5307 64.5325 30.848C65.2152 30.1227 65.6845 29.6107 65.9405 29.312C66.0258 29.2267 66.1112 29.1413 66.1965 29.056C66.3245 28.928 66.4525 28.864 66.5805 28.864C66.8792 28.864 67.0285 29.0133 67.0285 29.312C67.0285 29.4827 66.6872 29.9947 66.0045 30.848C65.3218 31.6587 64.4685 32.6187 63.4445 33.728C62.4205 34.7947 61.3752 35.8613 60.3085 36.928C59.2418 37.952 58.3032 38.8267 57.4925 39.552C56.7245 40.2347 56.2338 40.576 56.0205 40.576ZM46.8045 37.696C46.9752 37.696 47.1672 37.5893 47.3805 37.376C49.5565 35.4987 51.6258 33.4507 53.5885 31.232C55.5938 29.0133 57.4712 26.752 59.2205 24.448C59.0072 24.0213 58.7085 23.68 58.3245 23.424C57.9832 23.1253 57.5778 22.976 57.1085 22.976C56.2552 22.976 55.3165 23.3387 54.2925 24.064C53.3112 24.7893 52.3938 25.6213 51.5405 26.56C50.6872 27.456 50.0045 28.2027 49.4925 28.8C48.7245 29.7387 47.9778 30.9547 47.2525 32.448C46.5698 33.8987 46.2285 35.2427 46.2285 36.48C46.2285 37.2907 46.4205 37.696 46.8045 37.696ZM67.455 40.704C66.2177 40.704 65.3003 40.2133 64.703 39.232C64.1057 38.208 63.807 37.1627 63.807 36.096C63.807 34.6453 64.191 33.088 64.959 31.424C65.727 29.7173 66.6443 28.096 67.711 26.56C68.8203 25.024 69.8017 23.7653 70.655 22.784C70.8683 22.528 71.1457 22.4 71.487 22.4C71.871 22.4 72.255 22.5493 72.639 22.848C73.535 22.208 74.559 21.632 75.711 21.12C76.9057 20.608 78.0577 20.352 79.167 20.352C81.087 20.352 82.047 21.3333 82.047 23.296C82.047 25.1733 81.5777 26.9013 80.639 28.48C79.743 30.0587 78.7403 31.5947 77.631 33.088C77.3323 33.472 77.0337 33.8347 76.735 34.176C76.479 34.5173 76.1803 34.8587 75.839 35.2C77.7163 34.688 79.359 33.8347 80.767 32.64C82.175 31.4453 83.5617 30.208 84.927 28.928C85.0977 28.7573 85.247 28.6293 85.375 28.544C85.5457 28.416 85.759 28.352 86.015 28.352C86.2283 28.352 86.335 28.5013 86.335 28.8C86.335 28.8427 86.271 28.9493 86.143 29.12C86.015 29.2907 85.9297 29.4187 85.887 29.504C84.479 31.2107 82.7297 32.8107 80.639 34.304C78.591 35.7547 76.4363 36.6507 74.175 36.992C73.3643 37.8027 72.3403 38.6347 71.103 39.488C69.8657 40.2987 68.6497 40.704 67.455 40.704ZM72.447 35.648C72.6177 35.648 72.767 35.648 72.895 35.648C73.0657 35.648 73.2363 35.6267 73.407 35.584C74.2603 34.56 75.135 33.344 76.031 31.936C76.9697 30.528 77.759 29.0773 78.399 27.584C79.039 26.048 79.359 24.6613 79.359 23.424C79.359 22.656 78.9963 22.272 78.271 22.272C77.5457 22.272 76.7137 22.4853 75.775 22.912C74.8363 23.3387 74.047 23.7867 73.407 24.256V24.448C73.407 24.8747 73.0657 25.4933 72.383 26.304C71.743 27.072 71.039 27.8613 70.271 28.672C69.5457 29.4827 69.0123 30.1653 68.671 30.72C68.543 32.128 68.8203 33.3013 69.503 34.24C70.1857 35.1787 71.167 35.648 72.447 35.648ZM67.519 39.616C68.3297 39.616 69.119 39.3173 69.887 38.72C70.6977 38.1227 71.3803 37.568 71.935 37.056C70.911 36.9707 69.9723 36.6293 69.119 36.032C68.3083 35.392 67.5617 34.688 66.879 33.92C66.751 34.176 66.5803 34.6667 66.367 35.392C66.1537 36.1173 66.047 36.8427 66.047 37.568C66.047 38.1227 66.1537 38.6133 66.367 39.04C66.5803 39.424 66.9643 39.616 67.519 39.616ZM103.489 41.088C103.105 41.088 102.849 41.0027 102.721 40.832C102.593 40.704 102.486 40.4693 102.401 40.128C102.358 39.9573 102.337 39.808 102.337 39.68C102.337 39.5093 102.337 39.36 102.337 39.232C102.337 38.6347 102.465 38.1653 102.721 37.824C102.977 37.4827 103.51 37.3333 104.321 37.376C104.363 35.9253 104.811 34.048 105.665 31.744C106.518 29.3973 107.649 26.8373 109.057 24.064C110.507 21.2907 112.129 18.5387 113.921 15.808C115.713 13.0347 117.547 10.496 119.425 8.192C121.345 5.888 123.201 4.05333 124.993 2.688C126.785 1.28 128.406 0.575996 129.857 0.575996C130.411 0.575996 131.094 0.810664 131.905 1.28C132.715 1.70667 133.441 2.24 134.081 2.88C134.763 3.52 135.126 4.13867 135.169 4.736C135.169 4.77867 135.169 4.82133 135.169 4.864C135.211 4.864 135.233 4.90666 135.233 4.992C135.233 5.29066 135.126 5.44 134.913 5.44C134.358 5.14133 133.974 4.864 133.761 4.608C133.547 4.352 133.035 4.224 132.225 4.224C130.817 4.224 129.217 4.84267 127.425 6.08C125.675 7.27466 123.841 8.896 121.921 10.944C120.043 12.9493 118.187 15.168 116.353 17.6C114.561 20.032 112.918 22.4853 111.425 24.96C109.931 27.392 108.715 29.6747 107.777 31.808C106.838 33.8987 106.283 35.6053 106.113 36.928C109.227 36.4587 112.385 36.16 115.585 36.032C118.785 35.8613 121.963 35.776 125.121 35.776C127.382 35.776 129.131 35.8827 130.369 36.096C131.606 36.2667 132.459 36.5013 132.929 36.8C133.441 37.0987 133.697 37.376 133.697 37.632C133.697 38.1013 132.907 38.336 131.329 38.336C130.603 38.336 129.707 38.3147 128.641 38.272C127.617 38.1867 126.55 38.144 125.441 38.144C123.606 38.144 122.049 38.1867 120.769 38.272C119.489 38.3147 118.166 38.4213 116.801 38.592C115.435 38.7627 113.686 39.0187 111.553 39.36C111.211 39.4027 110.614 39.5307 109.76 39.744C108.95 39.9147 108.075 40.1067 107.137 40.32C106.241 40.5333 105.43 40.704 104.705 40.832C104.022 41.0027 103.617 41.088 103.489 41.088ZM151.53 15.872C150.549 15.872 150.058 15.5093 150.058 14.784C150.058 14.272 150.335 13.7173 150.89 13.12C151.445 12.5227 152.255 12.096 153.322 11.84C153.962 11.6693 154.474 11.584 154.858 11.584C155.285 11.5413 155.69 11.456 156.074 11.328C155.903 12.1387 155.541 13.0133 154.986 13.952C154.474 14.8907 153.791 15.4667 152.938 15.68C152.511 15.808 152.042 15.872 151.53 15.872ZM141.29 41.344C140.607 41.344 139.967 41.0667 139.37 40.512C138.815 39.9573 138.474 39.36 138.346 38.72C138.474 37.9093 138.751 36.928 139.178 35.776C139.647 34.5813 140.181 33.344 140.778 32.064C141.375 30.784 141.973 29.5893 142.57 28.48C143.167 27.328 143.679 26.4107 144.106 25.728C143.295 26.4533 142.421 27.264 141.482 28.16C140.586 29.056 139.733 29.888 138.922 30.656C138.879 30.6987 138.773 30.784 138.602 30.912C138.474 31.04 138.346 31.104 138.218 31.104C137.919 31.104 137.77 30.976 137.77 30.72C137.77 30.5067 137.855 30.3147 138.026 30.144C139.178 28.864 140.373 27.584 141.61 26.304C142.89 25.024 144.127 23.7013 145.322 22.336C145.706 21.8667 146.026 21.504 146.282 21.248C146.581 20.9493 147.029 20.8 147.626 20.8C147.882 20.8 148.266 20.864 148.778 20.992C149.333 21.0773 149.781 21.248 150.122 21.504C150.506 21.76 150.57 22.08 150.314 22.464C150.015 22.9333 149.503 23.7013 148.778 24.768C148.053 25.8347 147.221 27.0507 146.282 28.416C145.386 29.7813 144.49 31.168 143.594 32.576C142.741 33.9413 142.037 35.1787 141.482 36.288C140.927 37.3973 140.65 38.2293 140.65 38.784C140.65 39.04 140.735 39.168 140.906 39.168C141.162 39.168 141.589 38.9333 142.186 38.464C142.826 37.9947 143.445 37.504 144.042 36.992C144.682 36.4373 145.109 36.0747 145.322 35.904C146.559 34.8373 147.775 33.7493 148.97 32.64C150.165 31.488 151.295 30.2933 152.362 29.056C152.447 28.9707 152.554 28.8427 152.682 28.672C152.853 28.5013 153.023 28.416 153.194 28.416C153.407 28.416 153.514 28.544 153.514 28.8C153.514 29.0987 153.407 29.3973 153.194 29.696C152.639 30.3787 152.021 31.0613 151.338 31.744C150.655 32.384 150.015 33.024 149.418 33.664C148.309 34.7733 147.221 35.8827 146.154 36.992C145.13 38.0587 144.106 39.168 143.082 40.32C142.869 40.576 142.591 40.8107 142.25 41.024C141.951 41.2373 141.631 41.344 141.29 41.344ZM159.465 42.688C158.953 42.688 158.42 42.56 157.865 42.304C157.353 42.0907 156.841 41.792 156.329 41.408C155.774 40.9387 155.241 40.2773 154.729 39.424C154.217 38.5707 153.79 37.6747 153.449 36.736L148.521 42.112C148.393 42.24 148.308 42.304 148.265 42.304C148.094 42.304 148.009 42.176 148.009 41.92C148.009 41.536 148.137 41.216 148.393 40.96L153.129 35.584C153.001 35.072 152.937 34.5813 152.937 34.112C152.638 33.8987 152.233 33.6427 151.721 33.344C151.252 33.0027 151.017 32.448 151.017 31.68C151.017 30.784 151.294 29.9093 151.849 29.056C152.404 28.2027 152.873 27.776 153.257 27.776C153.556 27.776 153.705 28.032 153.705 28.544C153.705 28.7147 153.705 29.1627 153.705 29.888C153.748 30.6133 153.79 31.36 153.833 32.128C153.876 32.8533 153.918 33.344 153.961 33.6C154.217 33.7707 154.43 33.8773 154.601 33.92C156.265 32 158.014 30.016 159.849 27.968C161.684 25.92 163.326 24.1707 164.777 22.72C165.502 21.6107 166.292 20.672 167.145 19.904C168.041 19.136 169.065 18.752 170.217 18.752C171.028 18.752 171.604 18.9013 171.945 19.2C172.286 19.4987 172.457 19.84 172.457 20.224C172.457 20.608 172.286 20.9707 171.945 21.312C171.646 21.6107 171.198 21.76 170.601 21.76C169.662 21.7173 168.852 21.76 168.169 21.888C167.486 21.9733 166.996 22.272 166.697 22.784C166.398 23.3387 166.057 24.256 165.673 25.536C165.289 26.816 164.905 28.2667 164.521 29.888C164.18 31.5093 163.881 33.088 163.625 34.624C164.521 34.4533 165.374 34.24 166.185 33.984C167.038 33.6853 167.956 33.1947 168.937 32.512C169.918 31.8293 171.049 30.8267 172.329 29.504C172.542 29.248 172.756 29.12 172.969 29.12C173.097 29.12 173.161 29.2053 173.161 29.376C173.161 29.4613 173.118 29.6107 173.033 29.824C172.948 30.0373 172.777 30.3147 172.521 30.656C172.009 31.3387 171.369 32.0213 170.601 32.704C169.876 33.344 169.236 33.8347 168.681 34.176C167.529 34.8587 166.441 35.2853 165.417 35.456C164.393 35.584 163.732 35.6693 163.433 35.712C163.262 36.608 163.113 37.3547 162.985 37.952C162.857 38.5067 162.772 38.912 162.729 39.168C162.516 40.4053 162.089 41.3013 161.449 41.856C160.852 42.4107 160.19 42.688 159.465 42.688ZM160.937 34.624C161.15 33.6427 161.428 32.3413 161.769 30.72C162.153 29.0987 162.665 27.4773 163.305 25.856C162.196 27.0933 160.958 28.4373 159.593 29.888C158.27 31.3387 156.969 32.7893 155.689 34.24C156.5 34.4107 157.374 34.5387 158.313 34.624C159.252 34.6667 160.126 34.6667 160.937 34.624ZM158.505 39.616C158.846 39.616 159.188 39.3813 159.529 38.912C159.913 38.4 160.276 37.4613 160.617 36.096C160.617 35.968 160.638 35.8827 160.681 35.84C159.657 35.7973 158.654 35.7333 157.673 35.648C156.734 35.52 155.838 35.3067 154.985 35.008L154.473 35.584C154.814 36.2667 155.22 36.9707 155.689 37.696C156.158 38.3787 156.692 38.8693 157.289 39.168C157.502 39.296 157.716 39.4027 157.929 39.488C158.142 39.5733 158.334 39.616 158.505 39.616ZM175.808 41.664C175.04 41.664 174.379 41.408 173.824 40.896C173.312 40.384 172.907 39.7653 172.608 39.04C172.352 38.272 172.224 37.5467 172.224 36.864C172.224 36.1813 172.309 35.52 172.48 34.88C172.651 34.1973 172.885 33.536 173.184 32.896C173.739 31.6587 174.4 30.2933 175.168 28.8C175.979 27.264 176.832 25.7067 177.728 24.128C178.667 22.5067 179.605 21.0347 180.544 19.712C179.819 20.0107 178.965 20.352 177.984 20.736C177.045 21.0773 176.427 21.248 176.128 21.248C175.957 21.2053 175.829 21.0773 175.744 20.864C175.701 20.6507 175.68 20.4373 175.68 20.224C175.68 19.328 176.107 18.7307 176.96 18.432C178.283 18.0053 180.053 17.6213 182.272 17.28C183.893 15.1467 185.643 13.0133 187.52 10.88C189.44 8.74667 191.381 7.06133 193.344 5.824C193.728 5.568 194.155 5.696 194.624 6.208C195.093 6.67733 195.349 7.168 195.392 7.68C195.392 8.14933 195.221 8.46933 194.88 8.64C193.173 9.70667 191.595 10.9227 190.144 12.288C188.693 13.6107 187.2 15.1253 185.664 16.832C186.517 16.704 187.264 16.6187 187.904 16.576C188.544 16.5333 188.949 16.512 189.12 16.512C189.248 16.512 189.461 16.512 189.76 16.512C190.059 16.4693 190.379 16.448 190.72 16.448C191.232 16.448 191.701 16.4907 192.128 16.576C192.597 16.6613 192.832 16.8107 192.832 17.024C192.832 17.1947 192.64 17.344 192.256 17.472C191.915 17.5573 191.531 17.6213 191.104 17.664C190.677 17.664 190.357 17.6853 190.144 17.728C188.864 17.8987 187.712 18.0693 186.688 18.24C185.707 18.4107 184.789 18.624 183.936 18.88C182.955 20.0747 182.187 21.0773 181.632 21.888C181.12 22.6987 180.672 23.4453 180.288 24.128C179.947 24.768 179.52 25.4933 179.008 26.304C177.899 28.4373 176.939 30.6133 176.128 32.832C175.36 35.0507 174.976 36.8427 174.976 38.208C174.976 38.4213 174.997 38.592 175.04 38.72C175.083 38.848 175.211 38.912 175.424 38.912C175.68 38.912 175.915 38.848 176.128 38.72C176.384 38.5493 176.597 38.3787 176.768 38.208C177.365 37.7387 177.92 37.2053 178.432 36.608C178.987 35.968 179.52 35.3707 180.032 34.816C180.971 33.792 181.931 32.7893 182.912 31.808C183.893 30.8267 184.853 29.8453 185.792 28.864C185.877 28.7787 185.963 28.7147 186.048 28.672C186.133 28.5867 186.219 28.544 186.304 28.544C186.603 28.544 186.752 28.7147 186.752 29.056C186.752 29.184 186.667 29.376 186.496 29.632C185.984 30.3147 185.429 30.9973 184.832 31.68C184.235 32.32 183.659 32.9813 183.104 33.664C181.995 34.9867 180.885 36.288 179.776 37.568C178.709 38.848 177.643 40.1707 176.576 41.536C176.448 41.5787 176.32 41.6 176.192 41.6C176.064 41.6427 175.936 41.664 175.808 41.664Z" fill="white"/>
</svg>
